<?xml version="1.0" encoding="UTF-8" standalone="no"?>
<!-- Created with Inkscape (http://www.inkscape.org/) -->

<svg
   width="135.04053mm"
   height="12.643241mm"
   viewBox="0 0 135.04053 12.643241"
   version="1.1"
   id="svg1"
   xml:space="preserve"
   inkscape:export-filename="kaariq.svg"
   inkscape:export-xdpi="96"
   inkscape:export-ydpi="96"
   xmlns:inkscape="http://www.inkscape.org/namespaces/inkscape"
   xmlns:sodipodi="http://sodipodi.sourceforge.net/DTD/sodipodi-0.dtd"
   xmlns="http://www.w3.org/2000/svg"
   xmlns:svg="http://www.w3.org/2000/svg"><sodipodi:namedview
     id="namedview1"
     pagecolor="#ffffff"
     bordercolor="#000000"
     borderopacity="0.25"
     inkscape:showpageshadow="2"
     inkscape:pageopacity="0.0"
     inkscape:pagecheckerboard="0"
     inkscape:deskcolor="#d1d1d1"
     inkscape:document-units="mm"><inkscape:page
       x="0"
       y="0"
       width="135.04053"
       height="12.643241"
       id="page2"
       margin="0"
       bleed="0" /></sodipodi:namedview><defs
     id="defs1" /><g
     inkscape:label="Layer 1"
     inkscape:groupmode="layer"
     id="layer1"
     transform="translate(-37.479736,-18.678378)"><g
       id="g1"
       transform="translate(-12.933077,88.615618)"><path
         d="m 144.827,-57.401606 c -0.097,-0.15713 -0.10225,-0.15278 0.48517,-0.40506 0.44319,-0.19034 0.45288,-0.22436 0.45288,-1.59228 v -1.39781 l -0.6025,0.3555 c -0.38472,0.22698 -0.87583,0.35451 -1.35865,0.35277 -1.63804,-0.006 -2.68044,-1.143832 -2.78777,-3.04335 -0.0557,-0.984618 -0.009,-1.2179 0.37084,-1.866526 0.82468,-1.407218 2.61457,-1.971524 4.17751,-1.317061 0.58314,0.244188 0.62303,0.240274 0.83822,-0.08233 0.12427,-0.1863 0.32806,-0.338733 0.45288,-0.338733 0.18711,0 0.22694,0.768531 0.22694,4.378446 v 4.378434 l 0.49555,0.18706 c 0.27256,0.10288 0.47435,0.25068 0.44843,0.32845 -0.0605,0.18176 -3.08933,0.24091 -3.1995,0.0625 z m 0.45975,-3.52409 0.4783,-0.282544 v -2.090739 -2.090757 l -0.50669,-0.426348 c -0.95246,-0.801442 -2.2038,-0.360927 -2.70535,0.952367 -0.38287,1.002523 -0.28647,2.713837 0.18894,3.354181 0.64714,0.87164 1.66303,1.10472 2.5448,0.58384 z m -72.612453,0.75186 c -1.748638,-0.40309 -2.80907,-2.638197 -2.079785,-4.383626 0.989637,-2.368538 4.25015,-2.753188 5.632395,-0.664471 0.388346,0.586835 0.453067,0.85303 0.453067,1.86352 0,1.019285 -0.06162,1.26783 -0.455146,1.835675 -0.802035,1.157342 -2.153777,1.670892 -3.550531,1.348902 z m 1.905497,-0.70661 c 0.262734,-0.221072 0.564851,-0.692843 0.671372,-1.048377 0.246709,-0.82344 0.228521,-2.252735 -0.03813,-2.996143 -0.218359,-0.608792 -1.08561,-1.317465 -1.61226,-1.317465 -0.57587,0 -1.237574,0.473438 -1.54349,1.104366 -0.404585,0.834404 -0.41727,2.87748 -0.02248,3.620306 0.57843,1.088353 1.680857,1.364423 2.544979,0.637313 z m 16.51235,0.60755 c -0.834945,-0.41875 -0.985198,-0.858655 -0.98797,-2.892532 -0.0027,-1.950749 -0.11492,-2.328122 -0.739163,-2.484804 -0.548054,-0.137554 -0.529738,-0.396373 0.03684,-0.52034 0.249085,-0.05452 0.667737,-0.167074 0.930338,-0.250163 0.945747,-0.299235 0.92236,-0.359409 0.92236,2.372827 0,2.425271 0.01489,2.537889 0.381154,2.881986 0.642243,0.603346 2.086324,0.397656 2.621814,-0.373459 0.06654,-0.09584 0.122126,-1.011802 0.123512,-2.035504 l 0.0026,-1.861261 -0.494052,-0.172231 c -0.616102,-0.214776 -0.632018,-0.432549 -0.04117,-0.563369 0.249086,-0.05522 0.692285,-0.17299 0.984887,-0.261876 0.292602,-0.08884 0.607561,-0.114896 0.699909,-0.05778 0.10308,0.06369 0.167903,1.15046 0.167903,2.81488 0,2.987986 -0.08348,2.742466 1.056816,3.107746 0.547698,0.17545 0.06333,0.3733 -1.180328,0.48218 l -1.193962,0.10452 v -0.49521 c 0,-0.553599 -0.177108,-0.63017 -0.51506,-0.22266 -0.296804,0.35789 -1.169053,0.71564 -1.74406,0.71531 -0.251994,-1.3e-4 -0.716518,-0.12983 -1.032276,-0.2882 z m 19.226006,-0.12558 c -0.53775,-0.53775 -0.61897,-1.004742 -0.61897,-3.558959 v -2.120317 h -0.49405 c -0.66746,0 -0.62333,-0.270928 0.0929,-0.570172 0.42583,-0.17793 0.66311,-0.426653 0.86459,-0.906302 0.3905,-0.929669 0.68939,-0.86073 0.68939,0.158999 v 0.82342 h 0.91784 c 0.77859,0 0.90958,0.04289 0.86341,0.282621 -0.0439,0.228176 -0.2049,0.273363 -0.8355,0.234594 l -0.78106,-0.04802 v 2.54487 c 0,2.937956 0.0364,3.022086 1.23743,2.857466 0.8473,-0.11614 1.03802,0.19727 0.31931,0.52474 -0.75302,0.3431 -1.79191,0.24041 -2.25525,-0.22293 z m 51.83298,0.2956 c -0.39252,-0.0956 -0.86377,-0.49296 -1.12686,-0.950162 -0.10484,-0.182159 -0.22766,-1.25444 -0.27296,-2.382824 -0.0805,-2.006595 -0.0911,-2.053665 -0.48184,-2.14544 -0.57268,-0.134498 -0.60956,-0.466753 -0.0651,-0.586332 0.25552,-0.0562 0.67944,-0.170012 0.94204,-0.253101 0.2626,-0.08312 0.53385,-0.151072 0.60279,-0.151072 0.0689,0 0.1505,1.155331 0.18128,2.56739 0.0538,2.466879 0.0712,2.579695 0.44473,2.881976 0.58906,0.476655 1.68157,0.421965 2.32109,-0.116148 l 0.5119,-0.430735 -0.0464,-1.829158 c -0.0495,-1.950403 -0.0406,-1.930753 -1.0345,-2.30713 -0.3024,-0.114512 0.0406,-0.292097 1.01288,-0.524344 0.52983,-0.12656 1.01892,-0.23276 1.08685,-0.235974 0.0679,-0.003 0.12352,1.205418 0.12352,2.685894 0,2.398591 0.0327,2.721449 0.30115,2.96432 0.16565,0.14989 0.46208,0.27255 0.65875,0.27255 0.20805,0 0.35756,0.10328 0.35756,0.24703 0,0.18193 -0.18984,0.24702 -0.72048,0.24702 -0.39628,0 -0.95208,0.0463 -1.23514,0.10293 -0.48856,0.0977 -0.51464,0.0769 -0.51464,-0.4117 0,-0.504018 -0.20823,-0.679206 -0.41316,-0.34761 -0.0568,0.0919 -0.39169,0.3142 -0.74424,0.49405 -0.61721,0.31489 -1.19229,0.37836 -1.88925,0.20857 z m 19.90345,-0.0386 c -1.48214,-0.35345 -2.38809,-1.566754 -2.38809,-3.198312 0,-1.920124 1.25936,-3.255494 3.07019,-3.255494 1.58003,0 2.60573,0.91626 2.51513,2.246769 l -0.0449,0.658742 -2.09971,0.04605 -2.09973,0.04605 0.003,0.530299 c 0.002,0.291672 0.14081,0.832363 0.30849,1.201543 0.59707,1.314603 2.41039,1.625363 3.34981,0.574066 0.48289,-0.540405 0.78457,-0.645855 0.78457,-0.27425 0,0.358019 -1.07612,1.215437 -1.76586,1.406967 -0.69482,0.19296 -0.88899,0.19503 -1.63353,0.0175 z m 1.9661,-4.306414 c 0.11994,-0.190767 0.0791,-0.442152 -0.14728,-0.905759 -0.60159,-1.232207 -2.08322,-1.125712 -2.63263,0.189229 -0.4367,1.045187 -0.39506,1.081165 1.19031,1.028179 1.09064,-0.03648 1.46241,-0.109345 1.5896,-0.311649 z m -133.607858,4.074184 c 0,-0.1563 0.133356,-0.26941 0.317606,-0.26941 0.174683,0 0.435515,-0.11791 0.579627,-0.26202 0.226031,-0.22604 0.255922,-0.740642 0.217619,-3.746575 l -0.04441,-3.484547 -0.531659,-0.247027 c -0.292414,-0.135858 -0.533265,-0.33966 -0.535225,-0.45288 -0.0042,-0.244513 3.727331,-0.281911 4.932295,-0.0494 1.9497,0.376141 2.29846,2.885842 0.504306,3.629003 -0.577037,0.239011 -0.656873,0.496372 -0.153983,0.496372 1.132674,0 2.192312,1.290892 2.006636,2.444556 -0.112485,0.698901 -0.996411,1.596278 -1.813953,1.841568 -0.341373,0.10243 -1.713769,0.22753 -3.049771,0.27801 -2.176479,0.0822 -2.429094,0.0638 -2.429094,-0.17762 z m 4.782123,-0.639951 c 0.592968,-0.299008 0.781986,-0.507039 0.97925,-1.077694 0.227139,-0.657096 0.22131,-0.750379 -0.08235,-1.317475 -0.415226,-0.775482 -1.226568,-1.186132 -2.344172,-1.186457 l -0.864592,-2.57e-4 v 1.610192 c 0,1.894874 0.19957,2.342232 1.044892,2.342232 0.292689,0 0.862823,-0.16675 1.266965,-0.370541 z m -0.08138,-4.576785 c 0.464626,-0.436502 0.600608,-1.100628 0.385138,-1.88099 -0.195062,-0.706464 -0.865946,-1.076531 -1.951586,-1.076531 h -0.664026 v 1.619391 c 0,0.890674 0.05559,1.676272 0.123513,1.745793 0.232551,0.237966 1.727631,-0.05127 2.106961,-0.407663 z m 70.395305,5.205286 c 0,-0.13513 0.19367,-0.25837 0.45288,-0.2882 l 0.45289,-0.0521 v -2.462837 -2.462846 l -0.3995,-0.09436 c -0.57272,-0.135207 -0.60945,-0.467058 -0.0651,-0.587989 0.25552,-0.05679 0.71225,-0.178659 1.01496,-0.270877 0.31848,-0.09702 0.61169,-0.106368 0.69586,-0.02219 0.0801,0.08006 0.16582,1.440485 0.1907,3.023267 l 0.0453,2.877782 0.45288,0.0521 c 0.25921,0.0298 0.45288,0.15307 0.45288,0.28821 0,0.18925 -0.32669,0.23608 -1.64684,0.23608 -1.32016,0 -1.64685,-0.0468 -1.64685,-0.23608 z m 0.91753,-8.256909 c -0.42976,-0.429769 -0.30276,-0.856145 0.35878,-1.204521 0.5481,-0.288635 1.19397,0.147502 1.19397,0.806274 0,0.275907 -0.52541,0.657027 -0.90578,0.657027 -0.21349,0 -0.50464,-0.116454 -0.64697,-0.25878 z"
         style="fill:#90a955;fill-opacity:1;stroke-width:0.622429"
         id="path1-2" /></g></g></svg>
