<?xml version="1.0" encoding="UTF-8" standalone="no"?>
<!-- Created with Inkscape (http://www.inkscape.org/) -->

<svg
   width="37.622875mm"
   height="41.208355mm"
   viewBox="0 0 37.622875 41.208355"
   version="1.1"
   id="svg1"
   xml:space="preserve"
   inkscape:export-filename="K_1.png"
   inkscape:export-xdpi="96"
   inkscape:export-ydpi="96"
   sodipodi:docname="card_front.svg"
   xmlns:inkscape="http://www.inkscape.org/namespaces/inkscape"
   xmlns:sodipodi="http://sodipodi.sourceforge.net/DTD/sodipodi-0.dtd"
   xmlns="http://www.w3.org/2000/svg"
   xmlns:svg="http://www.w3.org/2000/svg"><sodipodi:namedview
     id="namedview1"
     pagecolor="#ffffff"
     bordercolor="#000000"
     borderopacity="0.25"
     inkscape:showpageshadow="2"
     inkscape:pageopacity="0.0"
     inkscape:pagecheckerboard="0"
     inkscape:deskcolor="#d1d1d1"
     inkscape:document-units="mm"><inkscape:page
       x="2.9755653e-16"
       y="0"
       width="37.622871"
       height="41.208355"
       id="page1"
       margin="0"
       bleed="0" /></sodipodi:namedview><defs
     id="defs1" /><g
     inkscape:label="Layer 1"
     inkscape:groupmode="layer"
     id="layer1"
     transform="translate(-6.1885646,-4.3958228)"><path
       style="fill:#304930;fill-opacity:1;stroke-width:0.378176"
       d="m 39.646815,45.575162 c -0.0059,-0.01595 -0.255621,-0.0458 -0.554997,-0.06632 -0.299375,-0.0205 -0.623567,-0.05639 -0.720426,-0.07972 -0.09686,-0.02334 -0.239165,-0.05159 -0.316245,-0.06279 -0.257773,-0.03748 -0.618099,-0.178065 -0.948501,-0.370136 -0.07044,-0.04095 -0.156893,-0.09046 -0.192113,-0.110012 -0.677824,-0.37638 -1.615501,-1.343776 -2.09724,-2.163709 -0.03623,-0.06164 -0.0939,-0.155292 -0.128187,-0.208122 -0.116955,-0.180194 -0.569034,-1.064967 -0.760751,-1.488882 -0.146728,-0.324432 -0.618106,-1.506778 -0.772304,-1.937145 -0.03154,-0.08805 -0.07544,-0.210525 -0.09754,-0.272161 -0.02208,-0.06164 -0.06045,-0.176904 -0.08522,-0.256151 -0.02477,-0.07925 -0.05814,-0.172903 -0.07416,-0.208123 -0.03109,-0.06835 -0.106732,-0.292783 -0.178064,-0.528313 -0.02402,-0.07925 -0.05873,-0.18731 -0.07717,-0.240141 -0.01846,-0.05283 -0.06221,-0.196917 -0.09726,-0.32019 -0.149848,-0.527046 -0.194685,-0.682141 -0.245282,-0.848501 -0.05045,-0.165895 -0.08003,-0.282408 -0.185415,-0.730392 -0.02405,-0.102339 -0.05999,-0.235617 -0.07981,-0.296175 -0.0463,-0.141468 -0.127109,-0.453941 -0.1651,-0.638417 -0.0163,-0.07925 -0.05085,-0.216128 -0.07674,-0.30418 -0.05003,-0.170178 -0.12659,-0.463258 -0.196553,-0.752445 -0.02344,-0.09686 -0.07312,-0.298576 -0.110428,-0.448265 -0.03729,-0.149688 -0.08762,-0.356895 -0.111811,-0.460459 -0.02421,-0.103565 -0.05879,-0.226037 -0.07688,-0.272161 -0.01808,-0.04612 -0.04724,-0.155905 -0.06479,-0.243957 -0.01755,-0.08805 -0.06911,-0.289771 -0.114594,-0.448265 -0.117107,-0.408032 -0.165641,-0.580868 -0.224781,-0.800473 -0.02844,-0.105662 -0.0724,-0.237517 -0.09766,-0.293009 -0.02526,-0.05549 -0.04641,-0.127536 -0.04701,-0.160095 -7.2e-4,-0.03256 -0.02893,-0.116833 -0.06295,-0.187274 -0.03403,-0.07044 -0.06235,-0.152905 -0.06295,-0.183252 -7.21e-4,-0.03035 -0.02897,-0.116799 -0.06306,-0.192114 -0.03408,-0.07531 -0.09407,-0.223388 -0.1333,-0.32905 -0.03922,-0.105663 -0.09953,-0.256952 -0.13401,-0.336199 -0.543386,-1.24886 -0.764574,-1.636636 -1.232798,-2.161278 -0.329256,-0.368933 -0.505822,-0.525984 -0.894923,-0.79602 -0.639379,-0.443731 -1.555175,-0.72505 -2.35948,-0.724797 -0.259833,8.2e-5 -1.073302,0.103377 -1.140326,0.144801 -0.01974,0.0122 -0.110386,0.04104 -0.201417,0.06409 -0.330227,0.08359 -0.770148,0.271681 -1.126076,0.481464 -0.07044,0.04152 -0.171303,0.09939 -0.224134,0.12861 -0.258729,0.143086 -0.779943,0.559933 -1.121535,0.896959 -0.415165,0.40962 -0.555435,0.56916 -0.83732,0.952349 -0.335767,0.456438 -0.441218,0.617929 -0.675812,1.034979 -0.05785,0.102833 -0.118165,0.208581 -0.134044,0.234997 -0.07666,0.127527 -0.310384,0.629955 -0.528774,1.136672 -0.02276,0.05283 -0.06655,0.153691 -0.09729,0.224133 -0.03074,0.07044 -0.06746,0.171301 -0.08161,0.224132 -0.01414,0.05283 -0.06373,0.196916 -0.110174,0.320189 -0.04645,0.123273 -0.103756,0.288971 -0.127354,0.368218 -0.0236,0.07925 -0.05799,0.18731 -0.07643,0.240142 -0.01846,0.05283 -0.0622,0.196916 -0.09725,0.320188 -0.149852,0.527047 -0.194688,0.682142 -0.245285,0.848502 -0.05105,0.167839 -0.08093,0.285041 -0.183684,0.720426 -0.02492,0.105662 -0.06891,0.261057 -0.09771,0.345322 -0.02882,0.08427 -0.05229,0.17792 -0.0522,0.208123 8.8e-5,0.03021 -0.0214,0.119753 -0.04775,0.199 -0.05144,0.154719 -0.119999,0.41199 -0.191985,0.720425 -0.04865,0.208456 -0.120105,0.483791 -0.191115,0.736436 -0.02473,0.08805 -0.07316,0.260954 -0.107591,0.384227 -0.233535,0.836233 -0.440103,1.523135 -0.500739,1.665112 -0.02257,0.0529 -0.05187,0.146557 -0.06506,0.208123 -0.0132,0.06157 -0.0368,0.127917 -0.05247,0.147445 -0.01565,0.01953 -0.04899,0.09878 -0.07403,0.176104 -0.127498,0.393655 -0.406785,1.013848 -0.611227,1.357316 -0.04193,0.07044 -0.08774,0.149987 -0.101798,0.176766 -0.240304,0.457782 -0.991491,1.311967 -1.41838,1.612862 -0.323775,0.228215 -0.474191,0.326295 -0.621695,0.405387 -0.570683,0.305983 -0.965216,0.453437 -1.635639,0.611295 -0.29419,0.06927 -0.389094,0.07537 -1.168692,0.07515 -0.692846,-1.98e-4 -0.880807,-0.0099 -1.024605,-0.05274 -0.09686,-0.0289 -0.233739,-0.06249 -0.304178,-0.0747 -0.170164,-0.02949 -0.523187,-0.139143 -0.6293029,-0.195444 -0.04674,-0.02482 -0.102294,-0.04509 -0.123445,-0.04509 -0.03536,0 -0.603739,-0.274509 -0.7521357,-0.363249 C 8.7235463,42.114282 8.2288917,41.723542 7.9882014,41.475365 7.6736799,41.151063 7.3004466,40.655653 7.034135,40.208989 6.949533,40.067089 6.708684,39.556871 6.6411606,39.376497 c -0.039553,-0.105662 -0.090948,-0.23749 -0.1142092,-0.29295 -0.023258,-0.05546 -0.052347,-0.156319 -0.064638,-0.224132 -0.012291,-0.06781 -0.040162,-0.159317 -0.061938,-0.203344 -0.021783,-0.04403 -0.049655,-0.152089 -0.061957,-0.240142 -0.012291,-0.08805 -0.042651,-0.240104 -0.06744,-0.337894 -0.1097013,-0.432777 -0.1099434,-1.98403 -3.782e-4,-2.463761 0.173061,-0.757803 0.2604387,-1.058527 0.387487,-1.333625 0.02564,-0.05549 0.046599,-0.111843 0.046599,-0.125224 0,-0.02202 0.3635373,-0.753527 0.4804467,-0.966745 0.048924,-0.08923 0.3049497,-0.47658 0.4490877,-0.679448 0.5013784,-0.705658 1.7084605,-2.00323 2.4484604,-2.632004 0.411766,-0.349874 1.079753,-0.879575 1.264768,-1.002938 0.07923,-0.05283 0.158475,-0.107273 0.176083,-0.120983 0.113184,-0.08811 0.56366,-0.407329 0.574816,-0.407329 0.0075,0 0.176571,-0.109896 0.375775,-0.244214 0.199201,-0.134318 0.3838,-0.252294 0.410216,-0.26217 0.0264,-0.0099 0.113581,-0.06208 0.193701,-0.115999 0.173916,-0.117052 0.21325,-0.141622 0.462684,-0.289008 0.105663,-0.06243 0.249748,-0.149562 0.320191,-0.193617 0.07044,-0.04405 0.171302,-0.102612 0.224133,-0.130125 0.05283,-0.02751 0.153691,-0.08495 0.22413,-0.127642 0.07044,-0.04269 0.171302,-0.100324 0.224134,-0.128076 0.05283,-0.02775 0.15369,-0.0849 0.224133,-0.127004 0.07044,-0.0421 0.171299,-0.0986 0.22413,-0.125561 0.05283,-0.02696 0.1681,-0.09044 0.256155,-0.141062 0.397028,-0.228272 0.51866,-0.296653 0.608356,-0.342004 0.05283,-0.02671 0.196917,-0.106297 0.320191,-0.176855 0.123274,-0.07056 0.281768,-0.156589 0.352206,-0.19118 0.07044,-0.03459 0.203724,-0.106153 0.296177,-0.159029 0.328616,-0.18794 0.507184,-0.286224 0.728432,-0.400934 0.123274,-0.06391 0.324993,-0.173352 0.448263,-0.243197 0.123274,-0.06985 0.26736,-0.149013 0.320191,-0.175927 0.05283,-0.02691 0.153691,-0.08362 0.224133,-0.126022 0.07044,-0.0424 0.160328,-0.09142 0.199753,-0.108934 0.07624,-0.03388 0.887924,-0.491926 0.968937,-0.546792 0.02643,-0.01789 0.09125,-0.05384 0.144085,-0.07989 0.05283,-0.02605 0.15369,-0.08349 0.224133,-0.127637 0.07044,-0.04415 0.171299,-0.102785 0.22413,-0.130298 0.05283,-0.02751 0.148941,-0.08145 0.213579,-0.119867 0.06464,-0.03841 0.259153,-0.153603 0.432256,-0.255977 0.173102,-0.102375 0.401184,-0.242705 0.506847,-0.311844 0.105662,-0.06914 0.224742,-0.139994 0.264621,-0.157452 0.03987,-0.01746 0.111917,-0.05922 0.160093,-0.09281 0.04817,-0.03358 0.17404,-0.115297 0.279703,-0.181579 0.355119,-0.222766 0.414538,-0.261278 0.928548,-0.601844 0.571193,-0.378452 0.773797,-0.514127 0.856338,-0.573452 0.03071,-0.02208 0.102769,-0.07302 0.160097,-0.113182 0.05732,-0.04017 0.313244,-0.227478 0.568705,-0.416246 0.255466,-0.188769 0.500411,-0.367836 0.544324,-0.397927 0.627573,-0.430029 2.09917,-1.704053 2.877059,-2.490793 0.599796,-0.606621 1.322978,-1.44974 1.853828,-2.161278 0.204918,-0.274671 0.688416,-1.028629 0.903455,-1.408832 0.08964,-0.158494 0.176253,-0.309783 0.192465,-0.336199 0.04357,-0.07098 0.527375,-1.049301 0.601705,-1.216719 0.03517,-0.07925 0.101601,-0.226042 0.147595,-0.326211 0.04599,-0.10017 0.08363,-0.198806 0.08363,-0.219192 0,-0.02038 0.01985,-0.07531 0.04411,-0.122054 0.06485,-0.12494 0.18002,-0.431975 0.18002,-0.479907 0,-0.02281 0.0267,-0.108983 0.05934,-0.191495 0.147455,-0.372808 0.324559,-1.03942 0.422657,-1.5908716 0.0188,-0.105663 0.05549,-0.307382 0.08155,-0.448265 0.119678,-0.64706 0.106971,-2.1828814 -0.02257,-2.7303734 -0.065,-0.274657 -0.07959,-0.303787 -0.19447,-0.388273 -0.06831,-0.05024 -0.192223,-0.12421 -0.275365,-0.164385 -0.08314,-0.04018 -0.177807,-0.0862 -0.210368,-0.102267 -0.07599,-0.03751 -0.473174,-0.147033 -0.66612,-0.183687 -0.154655,-0.02938 -0.388629,-0.09938 -0.63394,-0.189673 -0.20948,-0.0771 -0.252421,-0.172345 -0.277763,-0.616065 -0.01157,-0.202438 -0.01089,-0.435612 0.0015,-0.518164 l 0.0225,-0.150094 h 3.870368 3.870365 l 0.02311,0.15209 c 0.03101,0.20407 -0.0374,1.440131 -0.09525,1.721017 -0.02538,0.123273 -0.06088,0.310583 -0.07887,0.416245 -0.03687,0.216428 -0.126398,0.587508 -0.227915,0.944559 -0.03755,0.132078 -0.08854,0.312185 -0.113294,0.400237 -0.06946,0.247008 -0.144013,0.4706434 -0.192148,0.5763414 -0.02405,0.05283 -0.05277,0.132078 -0.06381,0.176103 -0.03464,0.138166 -0.244002,0.661283 -0.322361,0.805414 -0.02541,0.04674 -0.0462,0.09992 -0.0462,0.118178 0,0.04246 -0.203625,0.4815956 -0.469978,1.0135536 -0.183234,0.365961 -0.26562,0.521245 -0.513382,0.967675 -0.147867,0.266434 -0.415661,0.711462 -0.506404,0.841553 -0.05534,0.07933 -0.106593,0.159221 -0.113904,0.177525 -0.02174,0.05442 -0.603924,0.903181 -0.811546,1.18312 -0.183284,0.247124 -0.915334,1.173059 -1.012571,1.280757 -0.0477,0.05283 -0.162256,0.182507 -0.254573,0.28817 -0.421758,0.482742 -0.617985,0.691992 -1.133031,1.208201 -0.540516,0.541739 -1.013315,0.987318 -1.300222,1.225367 -0.07925,0.06575 -0.15129,0.128642 -0.160098,0.139756 -0.0088,0.01112 -0.102459,0.09193 -0.208122,0.179589 -0.105662,0.08766 -0.199318,0.166988 -0.208121,0.176287 -0.0088,0.0093 -0.06644,0.05484 -0.128077,0.101194 -0.06163,0.04636 -0.155291,0.122463 -0.208122,0.169122 -0.05283,0.04666 -0.158145,0.13112 -0.234035,0.187691 -0.07588,0.05657 -0.205561,0.154143 -0.28817,0.216828 -0.241473,0.183234 -0.97023,0.710031 -1.126866,0.814576 -0.131617,0.08785 -0.61234,0.428235 -0.688311,0.487377 -0.05192,0.04042 -1.212218,0.808883 -1.680994,1.113322 -0.451013,0.292902 -0.531886,0.344686 -0.848502,0.543298 -0.105663,0.06628 -0.228135,0.145006 -0.272163,0.174943 -0.04402,0.02994 -0.159291,0.101338 -0.256149,0.158671 -0.09686,0.05733 -0.276966,0.167897 -0.400236,0.245702 -0.123274,0.0778 -0.252951,0.156818 -0.28817,0.175588 -0.03521,0.01877 -0.116494,0.0658 -0.180602,0.104521 -0.06411,0.03872 -0.3883,0.225588 -0.720426,0.415268 -0.332125,0.18968 -0.625477,0.358467 -0.651892,0.375082 -0.02644,0.01662 -0.141684,0.07951 -0.25615,0.139771 -0.114467,0.06026 -0.330594,0.179869 -0.480284,0.2658 -0.14969,0.08593 -0.308183,0.174504 -0.352207,0.196828 -0.194856,0.09881 -0.486047,0.259409 -0.521528,0.287644 -0.02133,0.01698 -0.139664,0.08466 -0.262938,0.150398 -0.230011,0.122652 -0.540592,0.29854 -0.747583,0.423368 -0.06431,0.03878 -0.138541,0.08077 -0.164956,0.09331 -0.04317,0.02049 -0.606043,0.345893 -0.879714,0.50857 -0.145904,0.08673 -0.512338,0.306228 -0.636338,0.381177 -0.0555,0.03354 -0.129719,0.07702 -0.164941,0.09661 -0.03521,0.0196 -0.107263,0.0631 -0.160094,0.09668 -0.225919,0.143598 -0.42931,0.271331 -0.618942,0.388712 -0.111483,0.069 -0.337481,0.214005 -0.502218,0.322221 -0.164737,0.108216 -0.312207,0.201872 -0.327709,0.208123 -0.01551,0.0063 -0.327398,0.213085 -0.693095,0.459631 -0.3657,0.246546 -0.720459,0.484287 -0.788357,0.528312 -0.06789,0.04403 -0.199999,0.133663 -0.293563,0.199192 -0.200177,0.140192 -0.648085,0.451468 -0.762472,0.529879 -0.04403,0.03018 -0.218896,0.155848 -0.388602,0.279265 -0.169703,0.123416 -0.340631,0.246006 -0.37984,0.272421 -0.06271,0.04225 -0.244563,0.176637 -0.33621,0.248461 -0.01762,0.0138 -0.114055,0.08962 -0.21432,0.168482 -0.100266,0.07886 -0.244352,0.189252 -0.320191,0.245308 -0.07584,0.05606 -0.166704,0.12818 -0.201927,0.160277 -0.03521,0.0321 -0.150488,0.129898 -0.25615,0.217336 -0.645827,0.534434 -1.7122869,1.601854 -1.9471529,1.948907 -0.04953,0.07319 -0.128705,0.1763 -0.175939,0.229131 -0.04723,0.05283 -0.144286,0.182508 -0.215667,0.28817 -0.07138,0.105663 -0.1802464,0.264156 -0.2419267,0.352209 -0.061677,0.08805 -0.2092598,0.332996 -0.3279663,0.544321 -0.118705,0.211325 -0.2287281,0.40584 -0.2444902,0.432256 -0.040009,0.06704 -0.1890314,0.37338 -0.2608926,0.536317 -0.033013,0.07484 -0.088834,0.198894 -0.124057,0.275668 -0.035207,0.07677 -0.064524,0.152418 -0.065122,0.168099 -7.658e-4,0.01568 -0.028931,0.08615 -0.062951,0.156587 -0.034035,0.07044 -0.062354,0.152802 -0.062951,0.183023 -7.658e-4,0.03022 -0.021556,0.102264 -0.046569,0.160095 -0.2188694,0.506008 -0.3366445,1.949269 -0.2280628,2.794738 0.074883,0.583044 0.2081102,1.02115 0.4252023,1.39821 0.057472,0.09982 0.1044941,0.188855 0.1044941,0.197854 0,0.02951 0.2636415,0.417638 0.3948007,0.581222 0.1646958,0.20541 0.513204,0.539824 0.6778315,0.650425 0.07044,0.04733 0.214528,0.12694 0.320191,0.176928 0.105662,0.04999 0.214505,0.102373 0.241878,0.116413 0.02738,0.01402 0.178661,0.05945 0.3361989,0.100901 0.384257,0.101118 1.171974,0.108874 1.567188,0.01542 0.466957,-0.110405 0.879256,-0.290702 1.299863,-0.568424 0.606511,-0.400471 1.561977,-1.363794 1.961679,-1.977808 0.293019,-0.450129 0.311069,-0.479654 0.432377,-0.707161 0.06103,-0.114467 0.143056,-0.265757 0.182273,-0.336198 0.106854,-0.191925 0.316503,-0.61533 0.412216,-0.832493 0.04657,-0.105662 0.0967,-0.214222 0.111403,-0.241244 0.01471,-0.02702 0.0942,-0.221537 0.176662,-0.432256 0.173609,-0.443645 0.257129,-0.648934 0.341837,-0.84025 0.03335,-0.07532 0.06063,-0.152385 0.06063,-0.171265 0,-0.01888 0.02099,-0.07973 0.0466,-0.135224 0.05056,-0.109483 0.12383,-0.307791 0.195691,-0.529663 0.02503,-0.07733 0.05836,-0.156575 0.07403,-0.176104 0.01565,-0.01953 0.03902,-0.08594 0.0519,-0.147574 0.01286,-0.06164 0.03623,-0.128044 0.0519,-0.147573 0.01566,-0.01953 0.04899,-0.09878 0.07403,-0.176104 0.06841,-0.211233 0.144279,-0.420968 0.17825,-0.492805 0.03396,-0.07184 0.109838,-0.281573 0.178254,-0.492805 0.02503,-0.07733 0.05826,-0.156575 0.07381,-0.176104 0.01554,-0.01953 0.03839,-0.07153 0.05075,-0.115555 0.02481,-0.0883 0.131723,-0.378295 0.194803,-0.528312 0.0222,-0.05283 0.101154,-0.254551 0.175417,-0.448265 0.07426,-0.193715 0.163689,-0.417047 0.198724,-0.496294 0.03502,-0.07925 0.08251,-0.187311 0.105496,-0.240141 0.02299,-0.05283 0.07907,-0.178014 0.124624,-0.278183 0.04556,-0.10017 0.08283,-0.191733 0.08283,-0.203473 0,-0.0212 0.51904,-1.075327 0.574768,-1.167319 0.016,-0.02641 0.08273,-0.141684 0.14829,-0.256151 0.141472,-0.24702 0.545917,-0.864046 0.674761,-1.029415 0.05008,-0.06428 0.119878,-0.157118 0.155098,-0.206305 0.26765,-0.373777 0.951774,-1.073202 1.404747,-1.436169 0.295612,-0.236873 0.775745,-0.573998 0.898047,-0.630567 0.03664,-0.01694 0.124243,-0.06482 0.194682,-0.106393 0.07044,-0.04157 0.207323,-0.114513 0.304182,-0.162088 0.09685,-0.04758 0.230578,-0.113679 0.297159,-0.146899 0.06658,-0.03322 0.138625,-0.06049 0.160094,-0.06059 0.02148,-1.08e-4 0.07506,-0.01868 0.119087,-0.04126 0.07316,-0.03754 0.357218,-0.131341 0.793145,-0.261931 0.09283,-0.02781 0.272934,-0.06386 0.400236,-0.08011 0.127301,-0.01625 0.310706,-0.04815 0.407564,-0.07087 0.234034,-0.05491 1.956809,-0.05477 2.209306,1.76e-4 0.09686,0.02108 0.291373,0.05269 0.432255,0.07024 0.392611,0.04892 0.950966,0.196109 1.287493,0.33939 0.416732,0.17743 0.697225,0.302866 0.745711,0.333477 0.02643,0.01668 0.09125,0.05226 0.144085,0.07906 0.05283,0.0268 0.149531,0.08105 0.214887,0.120549 0.06536,0.0395 0.187829,0.113625 0.272162,0.16473 0.36288,0.219904 0.920973,0.677304 1.371199,1.123802 0.570067,0.565349 0.755994,0.769262 1.036412,1.136672 0.114246,0.149689 0.22015,0.28657 0.235346,0.30418 0.07045,0.08165 0.761208,1.086109 0.792309,1.152133 0.0088,0.01869 0.06661,0.112913 0.128455,0.20938 0.06185,0.09647 0.129979,0.204212 0.151403,0.239433 0.09389,0.154324 0.287633,0.484576 0.368525,0.628165 0.04843,0.08596 0.13142,0.231943 0.184425,0.324398 0.053,0.09246 0.118108,0.211325 0.144679,0.264156 0.02655,0.05283 0.140996,0.26896 0.254286,0.480284 0.221052,0.412344 0.61968,1.209181 0.864964,1.729022 0.08309,0.176104 0.19899,0.421048 0.257547,0.544322 0.05855,0.123272 0.166548,0.353809 0.239986,0.512302 0.299156,0.645642 0.720577,1.522078 1.019968,2.121242 0.08139,0.16289 0.166745,0.335792 0.189674,0.384227 0.02292,0.04843 0.05419,0.109677 0.06947,0.136093 0.01528,0.02641 0.131183,0.249747 0.257554,0.496293 0.126371,0.246546 0.293019,0.563533 0.370325,0.704416 0.07731,0.140884 0.150337,0.277764 0.162283,0.30418 0.02076,0.04592 0.623045,1.093039 0.770137,1.338966 0.03878,0.06484 0.08083,0.138203 0.09344,0.163026 0.04208,0.08286 0.646863,0.994672 0.804317,1.212653 0.16656,0.230595 0.61252,0.780199 0.837028,1.031567 0.501534,0.561538 1.740524,1.774749 2.06883,2.025791 0.0177,0.01351 0.0682,0.05451 0.112227,0.09107 0.102989,0.08551 0.474789,0.301849 0.568339,0.330699 0.101877,0.0314 0.08933,0.100641 -0.02893,0.159644 -0.08857,0.04419 -0.343925,0.05037 -2.078565,0.05037 -1.152786,0 -1.982036,-0.01207 -1.988257,-0.02897 z M 10.293991,26.828928 c -0.06011,-0.07243 -0.08779,-1.925419 -0.129672,-8.680977 C 10.130059,12.620504 10.087529,9.5470024 10.035572,8.8420014 9.996132,8.306844 9.8753691,7.796141 9.7034881,7.437621 9.6269181,7.277898 9.3837061,6.954416 9.2442681,6.826826 9.1520811,6.742472 8.7154531,6.477053 8.6688731,6.477053 c -0.014182,0 -0.098133,-0.02722 -0.1865243,-0.0605 C 8.2303667,6.321689 7.8007053,6.203614 7.3610682,6.108413 7.0385215,6.038567 6.7642229,5.924197 6.6948843,5.830646 6.6055174,5.710072 6.5807091,5.515104 6.5785119,4.916131 l -0.00189,-0.520308 h 4.7067821 4.706781 l -7.21e-4,0.232138 c -0.0019,0.44124 -0.05944,1.044713 -0.108983,1.140516 -0.04831,0.09341 -0.274038,0.228292 -0.382068,0.228292 -0.03052,0 -0.09462,0.02022 -0.142402,0.04493 -0.04779,0.02471 -0.158736,0.05537 -0.246556,0.06813 -0.08782,0.01276 -0.184838,0.03625 -0.215595,0.05219 -0.03075,0.01595 -0.13882,0.04428 -0.240141,0.06297 -0.168576,0.03109 -0.429567,0.110689 -0.760562,0.231965 -0.318901,0.116844 -0.729566,0.443331 -0.931456,0.740524 -0.235402,0.346531 -0.41223,0.971158 -0.462282,1.6329654 -0.01463,0.193715 -0.02764,4.3173016 -0.02885,9.1635256 -0.0012,4.846227 -0.01305,8.81793 -0.02625,8.826007 -0.0132,0.0081 -0.492559,0.02522 -1.065231,0.0381 -0.944268,0.02124 -1.045275,0.01852 -1.084848,-0.02915 z"
       id="path1" /></g></svg>
