<?xml version="1.0" encoding="UTF-8" standalone="no"?>
<!-- Created with Inkscape (http://www.inkscape.org/) -->

<svg
   width="192.27722mm"
   height="52.664219mm"
   viewBox="0 0 192.27722 52.664219"
   version="1.1"
   id="svg1"
   xml:space="preserve"
   inkscape:export-filename="kaariq.svg"
   inkscape:export-xdpi="96"
   inkscape:export-ydpi="96"
   xmlns:inkscape="http://www.inkscape.org/namespaces/inkscape"
   xmlns:sodipodi="http://sodipodi.sourceforge.net/DTD/sodipodi-0.dtd"
   xmlns="http://www.w3.org/2000/svg"
   xmlns:svg="http://www.w3.org/2000/svg"><sodipodi:namedview
     id="namedview1"
     pagecolor="#ffffff"
     bordercolor="#000000"
     borderopacity="0.25"
     inkscape:showpageshadow="2"
     inkscape:pageopacity="0.0"
     inkscape:pagecheckerboard="0"
     inkscape:deskcolor="#d1d1d1"
     inkscape:document-units="mm"><inkscape:page
       x="0"
       y="0"
       width="192.27722"
       height="52.664219"
       id="page2"
       margin="0"
       bleed="0" /></sodipodi:namedview><defs
     id="defs1" /><g
     inkscape:label="Layer 1"
     inkscape:groupmode="layer"
     id="layer1"
     transform="translate(-8.8613881,-13.66789)"><g
       id="g1"
       transform="translate(-12.933077,88.615618)"><path
         style="fill:#304930;fill-opacity:1;stroke-width:0.622429"
         d="m 203.05529,-22.503203 c -1.51077,-0.477795 -2.68859,-1.337066 -5.0863,-3.710652 l -1.46326,-1.448541 -0.67764,0.156485 c -0.3727,0.08608 -1.86337,0.123307 -3.31259,0.08272 -3.07442,-0.08608 -5.81793,-0.601664 -8.23421,-1.547582 -1.82943,-0.716186 -7.65782,-3.529281 -7.65782,-3.696079 0,-0.06705 0.98191,-0.954171 2.18205,-1.971465 1.20015,-1.017283 2.33847,-1.989281 2.52962,-2.159983 0.34665,-0.309578 0.34927,-0.307497 1.01539,0.808354 1.65802,2.777423 4.86641,5.477871 7.70479,6.484959 1.08841,0.386189 4.8481,0.665921 4.8481,0.360721 0,-0.250932 -4.8377,-4.922725 -6.41845,-6.198325 -4.85891,-3.920971 -8.85351,-3.383514 -14.69673,1.97736 -3.29116,3.0195 -5.80109,4.819483 -7.34708,5.268912 -1.17163,0.340606 -2.80746,0.231666 -3.83637,-0.255487 -0.96141,-0.455196 -2.06822,-1.509277 -2.67883,-2.55119 -1.02712,-1.752646 -0.97839,-0.863323 -1.07891,-19.695576 -0.0859,-16.095696 -0.111,-17.252001 -0.3879,-17.866002 -0.63046,-1.397997 -1.4664,-1.908343 -3.81214,-2.327334 -0.88546,-0.158159 -1.71287,-0.390506 -1.83869,-0.51633 -0.13335,-0.133347 -0.22877,-0.567321 -0.22877,-1.040428 v -0.811629 h 8.31655 8.31657 l -0.003,0.782251 c -8.6e-4,0.430238 -0.0617,0.875533 -0.13413,0.989545 -0.0724,0.114013 -1.00816,0.389068 -2.07953,0.611234 -2.98378,0.618743 -3.67083,1.263666 -3.86488,3.627948 -0.052,0.634035 -0.0576,8.420872 -0.0122,17.304083 l 0.0823,16.151288 0.43819,0.661946 c 0.24099,0.364063 0.69684,0.784681 1.01298,0.934708 1.39015,0.659659 4.05642,0.100422 6.5113,-1.365728 1.31554,-0.785687 1.78499,-1.145037 4.96525,-3.800682 1.60371,-1.339156 2.91526,-2.118434 4.44648,-2.64193 0.85666,-0.292885 1.43223,-0.365029 2.88197,-0.361262 2.9243,0.0079 5.02762,0.676963 7.16377,2.279809 0.58875,0.441758 2.68738,2.396845 4.66364,4.344636 l 3.59318,3.541428 0.6886,-0.389688 c 1.88447,-1.066434 4.506,-3.451793 5.69868,-5.185281 1.86972,-2.717564 2.77429,-6.543824 2.33228,-9.865376 -0.10485,-0.787922 -0.51301,-2.566033 -0.90702,-3.951357 -0.75848,-2.666835 -1.14859,-4.726928 -1.83098,-9.669404 -0.58429,-4.231833 -0.78173,-5.068148 -1.56166,-6.614878 -0.99116,-1.965689 -1.51807,-2.681006 -3.19441,-4.336629 -2.42457,-2.39463 -3.95935,-3.04142 -7.22485,-3.044706 -2.12851,-0.0022 -3.92674,0.295438 -5.43083,0.898722 -3.06314,1.228615 -6.41829,4.877906 -8.18188,8.899168 -1.07716,2.456092 -1.50029,4.570013 -1.59852,7.986062 -0.0783,2.720912 -0.0454,3.149653 0.58781,7.671657 0.36887,2.634324 0.71252,5.005778 0.76366,5.269897 0.0856,0.442226 -0.0153,0.566872 -1.27495,1.575496 -0.75237,0.602404 -2.06227,1.657352 -2.91091,2.344332 -0.84862,0.686991 -1.61044,1.207361 -1.69291,1.156395 -0.32434,-0.200459 -1.84883,-3.512716 -2.44891,-5.320733 -1.12117,-3.378052 -1.58489,-6.653008 -1.42475,-10.062094 0.1557,-3.314882 0.84735,-5.904658 2.49506,-9.342456 3.05296,-6.369754 8.60512,-10.850823 15.38885,-12.420108 2.09891,-0.485545 5.91279,-0.593517 8.09221,-0.229092 4.35005,0.727378 8.3777,2.896482 11.93757,6.428987 3.30909,3.283684 5.33637,6.809986 6.45427,11.226772 0.42822,1.691925 0.45044,1.968911 0.43346,5.406345 -0.0198,4.018028 -0.1373,4.824488 -1.15121,7.904847 -0.67193,2.041343 -1.85117,4.516396 -2.88296,6.050943 -2.17922,3.24107 -4.31104,5.222286 -8.00805,7.442345 -1.01896,0.611878 -1.90251,1.193192 -1.96346,1.291819 -0.22718,0.367583 3.16895,2.995847 4.98629,3.858904 1.69628,0.805554 3.12134,0.896629 5.29364,0.338318 0.83784,-0.215327 1.52334,-0.341207 1.52334,-0.279722 0,0.06143 -0.3268,0.413027 -0.72622,0.781211 -1.47105,1.355947 -3.41122,2.014157 -5.88493,1.996469 -0.8474,-0.0059 -1.83716,-0.104761 -2.19946,-0.219351 z M 57.681396,-27.391774 c -0.339002,-0.07996 -0.91588,-0.334385 -1.281952,-0.565469 -2.500613,-1.578581 -4.056169,-4.875753 -6.06791,-12.861608 -0.826669,-3.281565 -1.035827,-3.917779 -1.842422,-5.604241 -1.116262,-2.333925 -2.653751,-3.302791 -5.002031,-3.152088 -2.306708,0.148034 -4.480084,1.870706 -5.838467,4.62771 -0.604507,1.226921 -0.965643,2.372776 -2.500977,7.935384 -1.295893,4.695102 -3.257617,6.772401 -6.575395,6.962774 -3.827391,0.219617 -6.766922,-2.781702 -6.777738,-6.920199 -0.0065,-2.491953 0.816085,-4.297251 3.018406,-6.624309 2.213481,-2.338848 3.598498,-3.285217 9.958986,-6.804883 6.031917,-3.337847 8.698809,-5.184406 11.442264,-7.922636 3.533651,-3.526924 5.409268,-7.443645 5.412603,-11.302767 0.0016,-1.847866 -0.157475,-2.120054 -1.401742,-2.398508 -1.070379,-0.239541 -1.272283,-0.435751 -1.201988,-1.16809 l 0.05241,-0.545982 4.327081,-0.04391 c 3.906324,-0.03964 4.337289,-0.0173 4.432087,0.229733 0.170178,0.443476 -0.222324,2.838743 -0.698176,4.260658 -0.612086,1.829001 -1.666109,3.905795 -2.88688,5.688169 -1.206377,1.761357 -3.771445,4.505858 -5.564578,5.953837 -1.854043,1.497161 -6.403572,4.434347 -10.149331,6.55243 -3.348478,1.893436 -7.255187,4.368513 -9.052568,5.735215 -2.863361,2.177254 -4.123351,3.605375 -5.258827,5.960551 -0.669777,1.389234 -0.674879,1.41414 -0.674879,3.293691 0,1.635571 0.04901,1.98372 0.359385,2.55261 1.008856,1.849193 2.524213,2.533394 4.401947,1.987516 0.752029,-0.218621 1.165573,-0.492279 2.133891,-1.412089 1.440012,-1.367868 2.195689,-2.766123 3.737573,-6.915782 1.229072,-3.30778 2.039949,-5.077184 2.922002,-6.376064 3.170984,-4.66948 9.444753,-5.315208 13.490906,-1.388551 1.585933,1.539095 3.412649,4.477028 5.13499,8.258669 1.256808,2.759498 2.80345,5.678981 3.846849,7.261378 0.998875,1.514887 3.325733,4.028038 4.237776,4.577061 l 0.576395,0.346975 -3.04666,-0.01587 c -1.675663,-0.0089 -3.324026,-0.08134 -3.663028,-0.161247 z m 9.509321,-0.129676 c -2.237554,-0.774427 -4.145244,-2.864248 -4.96542,-5.439486 -0.335237,-1.052611 -0.465877,-3.968663 -0.242026,-5.402375 0.266487,-1.706778 0.923572,-3.683205 1.829252,-5.502145 0.847505,-1.702106 1.967715,-3.427332 5.334259,-8.215241 4.072845,-5.792414 6.274376,-9.610514 7.25132,-12.575916 0.323015,-0.98047 0.426648,-1.632496 0.426648,-2.684298 0,-1.904066 -0.341557,-2.525693 -1.387762,-2.525693 -0.50478,0 -1.03835,-0.596257 -0.828552,-0.9259 0.22701,-0.35669 4.680134,-2.887469 4.977425,-2.828748 0.247129,0.04881 0.67933,1.101013 3.740739,9.106888 0.761993,1.99268 1.988605,5.179322 2.725807,7.081426 1.42232,3.669824 3.115908,8.052495 5.759301,14.903932 3.044189,7.890259 4.070599,10.182985 5.286819,11.809258 0.70239,0.939204 1.69917,1.607816 2.65852,1.783251 0.545043,0.09968 0.617563,0.168819 0.617563,0.588669 v 0.475725 h -5.982453 -5.982458 l 0.0737,-0.502149 c 0.0586,-0.399233 0.1729,-0.521977 0.55777,-0.598953 0.670267,-0.134053 1.407979,-0.923862 1.633032,-1.748357 0.27215,-0.997031 0.07137,-3.540314 -0.41862,-5.302416 -0.487556,-1.753375 -2.153202,-6.206823 -2.802529,-7.493134 -1.68391,-3.335813 -3.792607,-4.804857 -5.869051,-4.088728 -0.896842,0.309305 -1.410466,0.777644 -1.935758,1.765091 -0.646966,1.216171 -1.044519,2.858149 -1.659105,6.852456 -0.837768,5.444811 -1.58922,7.658205 -3.197359,9.417763 -0.945257,1.034262 -1.869141,1.614796 -3.257494,2.046901 -1.261306,0.392558 -3.212794,0.393544 -4.343567,0.003 z m 2.384633,-4.302446 c 1.511642,-0.286683 2.700614,-0.936561 3.791069,-2.072152 1.203648,-1.253475 1.912565,-2.687295 2.652161,-5.364138 1.718652,-6.220367 2.000651,-6.942854 3.162999,-8.103673 1.633767,-1.631616 3.9984,-1.904358 5.863156,-0.676271 0.476521,0.313826 0.896352,0.570594 0.932956,0.570594 0.0787,0 0.114614,0.09469 -3.71574,-9.798717 -1.648182,-4.25709 -3.222873,-8.353356 -3.499311,-9.102814 -0.276439,-0.749456 -0.533383,-1.331883 -0.570987,-1.294279 -0.0376,0.03761 -0.214648,0.784405 -0.393428,1.659553 -0.645387,3.159224 -1.966673,5.818563 -5.609135,11.289467 -1.417409,2.128919 -3.361432,4.98238 -4.320051,6.341025 -3.085047,4.372422 -4.219034,7.14132 -4.219034,10.30177 0,2.714458 0.899744,4.712672 2.560127,5.685724 1.19803,0.702096 1.961749,0.830066 3.365218,0.563911 z m 34.25763,4.301766 c -1.23856,-0.398 -2.07971,-0.962414 -3.10327,-2.082358 -1.459033,-1.596407 -2.107873,-3.241562 -2.277293,-5.774117 -0.27558,-4.119606 1.14358,-7.912151 5.048213,-13.490749 8.03662,-11.481988 9.92578,-15.014679 9.95547,-18.616542 0.0124,-1.512675 -0.26973,-2.149529 -1.02045,-2.302883 -0.69075,-0.141105 -1.26644,-0.472582 -1.32202,-0.761219 -0.0572,-0.29714 0.65738,-0.782682 3.3356,-2.266388 1.39751,-0.774203 1.83405,-0.949532 1.93134,-0.775684 0.11995,0.214322 2.12584,5.396751 10.20655,26.369561 4.97253,12.905803 5.70498,14.611615 7.03249,16.378134 0.80019,1.064827 1.75857,1.750171 2.66051,1.902554 0.58764,0.09929 0.65441,0.159502 0.65441,0.590138 v 0.47958 h -5.92863 -5.92864 v -0.480971 c 0,-0.400622 0.0826,-0.499102 0.49459,-0.589595 0.64248,-0.141113 1.40353,-0.911094 1.65568,-1.675119 0.27897,-0.845269 0.10006,-3.602351 -0.34011,-5.241502 -0.54495,-2.029292 -2.08842,-6.084629 -2.97728,-7.822507 -1.70395,-3.331536 -3.81971,-4.721318 -5.87843,-3.861344 -0.77477,0.323639 -1.45846,0.969592 -1.867,1.763913 -0.47593,0.925357 -1.07376,3.373409 -1.45732,5.967515 -0.92694,6.26899 -1.72924,8.663893 -3.50768,10.47061 -1.82241,1.851372 -4.90057,2.611433 -7.36673,1.818973 z m 2.32357,-4.305808 c 2.12712,-0.403394 4.0134,-1.793772 5.03434,-3.71082 0.74847,-1.405433 1.09923,-2.423811 1.94965,-5.660609 0.82174,-3.127688 1.18113,-4.101331 1.98675,-5.382306 1.45839,-2.318962 4.61766,-2.928479 6.74978,-1.302234 0.32278,0.246198 0.62421,0.410302 0.66984,0.364675 0.0456,-0.04562 -0.14138,-0.627449 -0.41559,-1.292935 -0.45627,-1.107385 -5.90426,-15.194709 -6.88689,-17.808027 -0.23115,-0.614747 -0.44676,-1.091248 -0.47911,-1.058891 -0.0323,0.03236 -0.17522,0.672403 -0.31748,1.422322 -0.75472,3.978502 -2.44217,6.978182 -10.476,18.622543 -2.9491,4.27447 -3.87033,6.770842 -3.71859,10.07674 0.0693,1.510716 0.1507,1.909574 0.57404,2.81422 0.72848,1.556722 1.88221,2.595776 3.25272,2.929421 0.72205,0.17579 1.08838,0.173306 2.07654,-0.0141 z m 38.0241,3.220551 c 0,-0.535791 0.43327,-0.746879 1.53309,-0.746879 1.2331,0 1.84027,-0.143332 2.2588,-0.533266 0.30547,-0.284583 0.34034,-0.440674 0.24435,-1.093313 -0.43419,-2.951892 -4.12893,-10.095017 -7.6593,-14.807858 -1.11804,-1.492536 -1.60067,-1.869824 -2.19352,-1.714791 -0.19479,0.05093 -1.41108,1.120454 -2.70288,2.376696 -2.51359,2.444435 -3.39151,3.023821 -4.14672,2.73669 -0.95445,-0.36288 -1.58485,-1.343311 -1.43952,-2.238822 0.18158,-1.118968 2.56703,-3.62594 5.06343,-5.321376 0.58028,-0.394109 2.58089,-1.475875 4.44576,-2.403921 4.68389,-2.330913 5.68302,-3.123235 6.72996,-5.336987 0.70618,-1.493215 0.91684,-3.012515 0.6823,-4.920906 -0.46908,-3.817081 -1.72139,-6.01434 -4.36789,-7.663838 -1.91983,-1.196578 -3.67297,-1.705996 -6.64091,-1.929695 l -2.51144,-0.18929 v -0.6297 -0.629701 h 1.74202 c 6.5879,0 10.58665,1.170571 13.37938,3.916602 1.49439,1.469412 2.10936,2.475665 2.84211,4.650421 0.61249,1.817788 0.80445,3.956482 0.49076,5.467289 -0.7129,3.433485 -4.28017,6.619503 -9.08456,8.113652 -2.70155,0.840171 -4.69753,1.613576 -6.27555,2.431651 -1.90424,0.987196 -2.76478,1.713192 -2.76478,2.332481 0,0.984126 0.80032,0.67487 2.66855,-1.03117 1.48932,-1.360023 1.61995,-1.439106 2.6266,-1.590047 1.36119,-0.204103 2.42476,0.237043 3.86125,1.601566 1.69128,1.606561 2.50547,2.669321 4.76594,6.220999 2.2494,3.534267 3.71482,5.562652 5.5741,7.715497 1.65453,1.915766 4.07424,4.049217 5.00035,4.408813 0.59725,0.231903 0.6999,0.340942 0.6999,0.743438 v 0.471683 h -7.41079 -7.41079 z M 26.376452,-48.402747 c -0.06038,-0.06038 -0.115435,-3.487877 -0.122332,-7.61665 -0.0069,-4.128774 -0.06787,-8.914911 -0.135498,-10.635863 -0.162422,-4.133355 -0.303136,-4.406183 -2.601199,-5.043417 -0.597079,-0.165565 -1.126027,-0.341455 -1.17544,-0.390868 -0.04941,-0.04941 -0.0944,-0.440233 -0.09997,-0.868491 l -0.01012,-0.77865 5.311069,-0.04345 5.311071,-0.04345 v 0.829235 c 0,0.92958 -0.0015,0.930757 -1.662064,1.386793 -1.25689,0.345157 -1.738334,0.765291 -2.039639,1.779898 -0.212883,0.716853 -0.25072,2.405498 -0.25072,11.189486 v 10.345217 h -1.207686 c -0.664228,0 -1.25709,-0.04941 -1.317475,-0.109789 z"
         id="path1" /></g></g></svg>
