<?xml version="1.0" encoding="UTF-8" standalone="no"?>
<!-- Created with Inkscape (http://www.inkscape.org/) -->

<svg
   width="18.412531cm"
   height="19.625648cm"
   viewBox="0 0 184.12531 196.25649"
   version="1.1"
   id="svg1"
   xml:space="preserve"
   inkscape:export-filename="bitmap.svg"
   inkscape:export-xdpi="96"
   inkscape:export-ydpi="96"
   xmlns:inkscape="http://www.inkscape.org/namespaces/inkscape"
   xmlns:sodipodi="http://sodipodi.sourceforge.net/DTD/sodipodi-0.dtd"
   xmlns="http://www.w3.org/2000/svg"
   xmlns:svg="http://www.w3.org/2000/svg"><sodipodi:namedview
     id="namedview1"
     pagecolor="#ffffff"
     bordercolor="#000000"
     borderopacity="0.25"
     inkscape:showpageshadow="2"
     inkscape:pageopacity="0.0"
     inkscape:pagecheckerboard="0"
     inkscape:deskcolor="#d1d1d1"
     inkscape:document-units="mm"
     inkscape:export-bgcolor="#ffffff00"><inkscape:page
       x="-2.9168393e-14"
       y="-3.0374629e-14"
       width="184.12532"
       height="196.25648"
       id="page2"
       margin="0"
       bleed="0" /></sodipodi:namedview><defs
     id="defs1" /><g
     inkscape:label="Layer 1"
     inkscape:groupmode="layer"
     id="layer1"
     transform="translate(-52.937339,-50.371775)"><path
       style="fill:#000000;stroke-width:1.50984"
       d="m 162.91834,246.07506 c -1.49916,-0.65323 -3.58551,-2.98954 -4.42128,-4.951 -1.02333,-2.40158 -0.59044,-7.51493 0.97416,-11.50708 4.3626,-11.13139 15.94855,-22.16767 34.29203,-32.66509 2.77985,-1.59084 5.23814,-3.18389 5.46285,-3.54013 0.40726,-0.64565 -0.17497,-2.64451 -2.55685,-8.77771 -0.5104,-1.31427 -0.78345,-2.6645 -0.64627,-3.19583 0.14751,-0.57114 1.63974,-1.90472 3.93514,-3.51665 8.42632,-5.91733 17.45325,-14.18014 18.65131,-17.07251 1.19746,-2.89094 -0.33087,-4.09982 -5.1832,-4.09982 -5.21087,0 -11.53582,1.9317 -19.22509,5.87153 -3.62766,1.85874 -4.84693,1.97692 -5.31099,0.51478 -0.13332,-0.41989 -0.0525,-1.11795 0.17929,-1.55123 0.6723,-1.2562 0.5561,-1.31603 -2.07512,-1.06845 -2.66343,0.25062 -5.14391,-0.12335 -5.37277,-0.80986 -0.0767,-0.23004 1.37242,-2.74212 3.22022,-5.58241 3.80479,-5.84843 8.74599,-14.17404 11.65932,-19.64525 1.08217,-2.03234 2.08369,-3.69516 2.22559,-3.69516 0.5253,0 0.77895,5.90154 0.39491,9.18798 -0.21825,1.86756 -0.84737,4.93966 -1.39805,6.82688 -0.99331,3.4042 -3.95804,10.60085 -4.66724,11.3294 -0.20318,0.20871 -0.36943,0.61545 -0.36943,0.90384 0,0.35085 0.89224,0.0762 2.69648,-0.82986 10.88028,-5.46423 22.4816,-6.60012 25.90133,-2.53602 0.9436,1.12142 1.0302,1.49994 0.89414,3.90807 -0.12064,2.13414 -0.38515,3.01547 -1.32532,4.4152 -2.05599,3.06094 -7.79155,8.38743 -14.50091,13.46671 -5.69356,4.31027 -6.47356,5.03508 -6.23347,5.79241 0.15099,0.47613 0.93123,2.61507 1.73396,4.75323 l 1.45952,3.88756 6.97108,-3.59356 c 13.85489,-7.14214 24.56821,-12.3716 25.5468,-12.47008 0.87578,-0.0882 1.01307,0.0716 1.11547,1.29766 l 0.11671,1.39818 -6.9079,3.47711 c -3.79934,1.91241 -11.30488,5.77736 -16.67898,8.58877 l -9.77108,5.11166 -0.0657,5.19321 c -0.0548,4.32692 -0.2429,5.79296 -1.12795,8.78851 -1.59999,5.41529 -5.26976,12.51441 -9.06485,17.53582 -4.21046,5.571 -11.26848,12.65819 -15.25465,15.31768 -5.1775,3.45433 -11.89734,5.0125 -15.27327,3.54151 z m 7.04565,-3.60723 c 4.59253,-1.3939 8.789,-4.31013 13.9704,-9.70841 10.48452,-10.92338 16.03253,-21.57438 16.11306,-30.93371 0.0163,-1.90305 -0.0871,-3.57796 -0.23013,-3.72203 -0.64698,-0.65209 -11.518,5.7937 -17.99758,10.6714 -7.65385,5.76166 -13.21846,11.70826 -17.15207,18.3295 -1.79707,3.0249 -3.5184,7.55559 -3.53112,9.29414 -0.0136,1.8662 0.86029,4.23105 2.02396,5.47675 0.9105,0.97471 1.39528,1.16028 3.0215,1.15666 1.06534,-0.003 2.76723,-0.25631 3.78198,-0.5643 z m -56.7732,-25.83596 c -2.11047,-0.41207 -2.67016,-1.04387 -3.02584,-3.4156 -1.01251,-6.75194 7.75303,-18.57916 23.00214,-31.03642 3.1845,-2.60148 5.93434,-4.98438 6.11072,-5.29532 0.2323,-0.40948 -0.18473,-0.86759 -1.51263,-1.66168 -8.48491,-5.07393 -13.46569,-9.24377 -17.45424,-14.61242 -3.03299,-4.08248 -5.65202,-9.47317 -7.01913,-14.44735 -1.02486,-3.72896 -1.09631,-4.49984 -1.07358,-11.58486 0.0228,-7.09039 0.096,-7.82414 1.11332,-11.14559 2.33071,-7.60967 5.56626,-13.08233 11.16762,-18.88909 5.55188,-5.755475 11.92381,-9.634685 19.65115,-11.963642 3.33212,-1.004253 4.13628,-1.085332 10.98564,-1.107481 6.88341,-0.02219 7.66277,0.05179 11.36204,1.078688 7.36149,2.0436 15.18251,6.57228 20.66146,11.963805 3.19778,3.14676 3.09556,4.31516 -0.4284,4.89689 -4.3833,0.72357 -17.90062,7.16942 -25.60293,12.20897 -10.25071,6.70692 -21.6437,18.30022 -25.98947,26.44639 -1.31594,2.46677 -1.39527,3.74322 -0.27621,4.44472 1.06931,0.67032 1.89396,-0.0681 3.69518,-3.30884 5.76448,-10.37141 16.45493,-20.33031 29.96084,-27.91062 5.00952,-2.81163 10.20852,-5.0983 16.96625,-7.46222 l 5.78087,-2.02221 0.33186,-1.68356 c 0.2991,-1.51738 0.46977,-1.70944 1.7289,-1.94566 1.584,-0.29716 5.79119,0.42622 7.44108,1.27941 1.98801,1.02803 2.4455,2.21214 2.18715,5.66089 -0.25472,3.40054 -1.08542,6.86889 -2.30605,9.62833 l -0.79801,1.80403 -1.05477,-1.13751 -1.05476,-1.13752 -0.68807,0.84974 c -0.37844,0.46736 -2.4382,4.1335 -4.57723,8.14699 -5.06306,9.49992 -8.63142,15.54377 -13.41764,22.72588 l -3.89257,5.84116 -5.32089,1.69598 c -12.11397,3.8612 -26.64561,10.3593 -27.36629,12.23734 -0.12245,0.31895 0.0732,0.90676 0.43477,1.30622 1.00798,1.11384 0.4509,1.87646 -3.51452,4.81113 -6.87044,5.08457 -16.98163,15.10328 -22.00951,21.80817 -2.69314,3.59143 -4.27032,6.75886 -4.12347,8.28114 0.12456,1.29182 0.13136,1.29551 2.58086,1.41307 3.09127,0.14842 5.92547,-0.75222 12.32477,-3.91626 6.08445,-3.0084 9.9455,-5.94822 18.1834,-13.84499 10.19132,-9.76928 15.65941,-15.7572 14.99724,-16.42298 -0.15793,-0.15881 -3.1406,-0.37861 -6.62814,-0.48846 -7.09755,-0.22358 -7.95924,-0.5149 -6.40775,-2.16639 1.58435,-1.68646 8.80771,-5.16757 16.7269,-8.06109 2.04325,-0.74657 4.0656,-1.35739 4.49412,-1.35739 1.42677,0 0.83962,1.44049 -2.26169,5.54879 -3.09177,4.09566 -3.39734,5.06223 -1.67746,5.30599 0.6733,0.0954 0.88569,0.34718 0.78451,0.92982 -0.29284,1.68637 -10.04783,12.56188 -17.23854,19.21869 -10.75792,9.95916 -20.40838,16.25131 -27.84037,18.1521 -3.23392,0.82709 -5.19923,0.90965 -8.11263,0.34082 z m 86.00394,-98.79741 c 1.29358,-4.85472 0.80296,-5.82674 -2.94109,-5.82674 -2.72846,0 -2.78452,0.11294 -1.57656,3.17759 1.0378,2.63293 2.68256,5.21145 3.32421,5.21145 0.29054,0 0.805,-1.10456 1.19344,-2.5623 z M 77.836988,205.84495 c -3.642163,-0.51986 -8.494995,-2.16003 -11.368646,-3.84238 -1.419074,-0.83077 -4.131183,-3.0385 -6.026911,-4.90607 -3.568635,-3.51561 -5.383941,-6.47128 -6.385907,-10.39752 -0.547797,-2.14657 -1.257136,-50.81143 -1.094522,-75.09073 0.106111,-15.842395 0.127521,-16.226255 1.029498,-18.458781 2.234132,-5.529735 7.682666,-12.078066 12.200033,-14.662636 5.632414,-3.222537 8.421252,-3.761851 22.032882,-4.260701 4.174535,-0.152992 7.972415,-0.420475 8.439725,-0.594378 0.569616,-0.211996 1.277096,-1.34599 2.146596,-3.440753 5.389064,-12.983078 10.656414,-17.908228 20.173464,-18.862868 2.19714,-0.220391 19.81412,-0.525741 39.14884,-0.678537 l 35.15406,-0.277825 4.57502,2.299226 c 6.01581,3.023299 8.60601,5.55504 11.52518,11.265034 2.17612,4.256609 5.67134,12.811016 5.67134,13.880404 0,1.534146 -19.86095,23.417885 -21.24565,23.409475 -0.36988,-0.002 -2.17403,-1.231455 -4.00922,-2.731585 -7.38012,-6.032693 -12.57384,-9.104034 -18.61941,-11.010733 -14.69075,-4.633253 -31.86039,-1.97689 -44.38459,6.866873 -3.36834,2.3785 -9.71079,8.720515 -12.08824,12.087425 -8.53895,12.09266 -11.09414,27.61482 -6.96684,42.3218 2.29028,8.16103 4.82961,12.59959 12.64683,22.10565 0.87382,1.06261 1.58897,2.14119 1.58921,2.39687 2.5e-4,0.25566 -7.37881,7.79026 -16.39789,16.74357 l -16.398349,16.27872 -4.474816,-0.0488 c -2.461151,-0.0267 -5.55341,-0.20267 -6.871687,-0.39082 z m 21.085276,-19.43447 c 6.998826,-6.97589 12.877206,-12.9574 13.063086,-13.29224 0.24263,-0.43708 -0.3946,-1.62016 -2.25922,-4.19451 -4.62492,-6.38528 -6.41851,-9.94252 -8.55555,-16.96823 -1.407321,-4.62665 -2.006606,-8.47386 -2.240208,-14.3812 -0.394037,-9.96443 1.066444,-18.28225 4.472648,-25.4728 4.73753,-10.00103 14.10587,-20.524391 23.33491,-26.211858 12.38735,-7.633814 30.29398,-9.876331 44.97636,-5.63257 6.69588,1.93537 13.81488,5.51373 18.68713,9.393077 1.09469,0.871599 2.285,1.584725 2.64514,1.584725 0.63256,0 5.23772,-4.494227 10.35211,-10.10273 4.02755,-4.416683 3.89646,-3.868098 2.05747,-8.610286 -0.87529,-2.257117 -1.96913,-4.844163 -2.43073,-5.749009 -1.13076,-2.216471 -4.47544,-5.713451 -7.05328,-7.374469 l -2.1077,-1.358069 -37.44061,0.140717 c -32.89804,0.123656 -37.69383,0.218111 -39.52777,0.779092 -5.23198,1.600382 -7.32253,4.231878 -11.6861,14.709969 -1.31336,3.153718 -2.61661,5.9588 -2.89611,6.2335 -0.35223,0.346176 -3.511578,0.63149 -10.295388,0.929713 -14.006554,0.615772 -17.185295,1.151251 -22.079432,3.719409 -3.299502,1.731391 -7.132685,5.905458 -7.992948,8.70376 -1.258687,4.094304 -1.559007,11.925099 -1.65368,43.119459 -0.107002,35.25466 0.174814,45.80779 1.321641,49.49256 0.993464,3.19201 3.387926,6.32894 6.557264,8.59052 4.527688,3.2309 8.716365,4.5475 14.644723,4.60318 l 3.381119,0.0317 z m 71.665326,-10.7697 c -0.36311,-0.58754 0.85219,-2.6496 3.54543,-6.01574 3.23477,-4.04295 4.94172,-4.965 9.64895,-5.21207 l 3.31221,-0.17384 v 1.01642 c 0,1.34245 -2.95175,3.68212 -9.3346,7.39898 -4.8754,2.83905 -6.77431,3.62971 -7.17199,2.98625 z"
       id="path1" /></g></svg>
